<?xml version="1.0" encoding="UTF-8"?>
<svg width="600" height="540" version="1.1" viewBox="0 0 600 540" xmlns="http://www.w3.org/2000/svg" xmlns:xlink="http://www.w3.org/1999/xlink">
 <defs>
  <marker id="x" overflow="visible" orient="auto">
   <path transform="matrix(-.8 0 0 -.8 -10 0)" d="m0 0 5-5-17.5 5 17.5 5z" fill-rule="evenodd" stroke="#000" stroke-width="1pt"/>
  </marker>
  <marker id="i" overflow="visible" orient="auto">
   <path transform="matrix(-.8 0 0 -.8 -10 0)" d="m0 0 5-5-17.5 5 17.5 5z" fill-rule="evenodd" stroke="#000" stroke-width="1pt"/>
  </marker>
  <marker id="j" overflow="visible" orient="auto">
   <path transform="matrix(-.8 0 0 -.8 -10 0)" d="m0 0 5-5-17.5 5 17.5 5z" fill-rule="evenodd" stroke="#000" stroke-width="1pt"/>
  </marker>
  <linearGradient id="a">
   <stop stop-color="#23772f" offset="0"/>
   <stop stop-color="#23772f" stop-opacity="0" offset="1"/>
  </linearGradient>
  <linearGradient id="b">
   <stop stop-color="#3c88a3" offset="0"/>
   <stop stop-color="#3c88a3" stop-opacity="0" offset="1"/>
  </linearGradient>
  <linearGradient id="d">
   <stop stop-color="#ffe680" offset="0"/>
   <stop stop-color="#ffe680" stop-opacity="0" offset="1"/>
  </linearGradient>
  <radialGradient id="w" cx="234" cy="447.9" r="68.559" gradientTransform="matrix(1.2909,-1.327e-8,0,1.0921,-2.0773,1.24)" gradientUnits="userSpaceOnUse">
   <stop stop-color="#d58900" offset="0"/>
   <stop stop-color="#d58900" stop-opacity="0" offset="1"/>
  </radialGradient>
  <radialGradient id="v" cx="234" cy="447.9" r="68.559" gradientTransform="matrix(1.5888 3.8142e-7 -4.1353e-7 1.6005 -71.784 -226.47)" gradientUnits="userSpaceOnUse">
   <stop stop-color="#d58900" offset="0"/>
   <stop stop-color="#e20000" stop-opacity="0" offset="1"/>
  </radialGradient>
  <radialGradient id="u" cx="85" cy="443.18" r="68.559" gradientTransform="matrix(1.2909 0 0 .94147 190.27 66.7)" gradientUnits="userSpaceOnUse">
   <stop stop-color="#fc0" offset="0"/>
   <stop stop-color="#fc0" stop-opacity="0" offset="1"/>
  </radialGradient>
  <radialGradient id="t" cx="-40" cy="453.18" r="68.559" gradientTransform="matrix(.58492 2.5693e-8 0 .52646 323.39 245.35)" gradientUnits="userSpaceOnUse">
   <stop stop-color="#fff" offset="0"/>
   <stop stop-color="#fff" stop-opacity="0" offset="1"/>
  </radialGradient>
  <radialGradient id="o" cx="270" cy="276.33" r="30" gradientTransform="matrix(1.5686 0 0 .62081 -109.54 438.52)" gradientUnits="userSpaceOnUse" xlink:href="#b"/>
  <radialGradient id="k" cx="272.5" cy="306.25" r="42.5" gradientTransform="matrix(.61973 0 0 .25452 541.44 -2.6293)" gradientUnits="userSpaceOnUse" xlink:href="#a"/>
  <radialGradient id="q" cx="157.5" cy="352.5" r="47.5" gradientTransform="matrix(1.0192 -.067943 .014292 .21438 99.164 558.53)" gradientUnits="userSpaceOnUse">
   <stop stop-color="#f60" offset="0"/>
   <stop stop-color="#f60" stop-opacity="0" offset="1"/>
  </radialGradient>
  <radialGradient id="s" cx="127.5" cy="470" r="67.65" gradientTransform="matrix(.37533 0 0 .23253 201.38 498.69)" gradientUnits="userSpaceOnUse" xlink:href="#d"/>
  <radialGradient id="r" cx="127.5" cy="470" r="67.65" gradientTransform="matrix(.37533 0 0 .23253 224.78 497.52)" gradientUnits="userSpaceOnUse" xlink:href="#d"/>
  <radialGradient id="p" cx="270" cy="276.33" r="30" gradientTransform="matrix(.91439 0 0 .34696 47.052 517.85)" gradientUnits="userSpaceOnUse" xlink:href="#b"/>
  <radialGradient id="l" cx="272.5" cy="306.25" r="42.5" gradientTransform="matrix(1.2909 0 0 .37534 -25.096 504.65)" gradientUnits="userSpaceOnUse" xlink:href="#a"/>
  <radialGradient id="n" cx="270" cy="276.33" r="30" gradientTransform="matrix(1.5686 0 0 .62081 -95.598 438.35)" gradientUnits="userSpaceOnUse" xlink:href="#b"/>
  <radialGradient id="m" cx="272.5" cy="306.25" r="42.5" gradientTransform="matrix(.71571 0 0 .37534 98.814 505.24)" gradientUnits="userSpaceOnUse" xlink:href="#a"/>
 </defs>
 <path d="m530.46 8.87-230.46 481.52-230.46-481.52" fill="none" stroke="#000" stroke-linejoin="round" stroke-width="2"/>
 <use transform="matrix(.51429 0 0 .51429 145.72 238.18)" xlink:href="#c"/>
 <use transform="translate(54.32,134.67)" opacity=".75" xlink:href="#h"/>
 <use transform="translate(-36.47,122.06)" opacity=".75" xlink:href="#f"/>
 <use transform="translate(-12.7,132.81)" opacity=".75" xlink:href="#g"/>
 <use transform="translate(36.96,106.09)" opacity=".75" xlink:href="#e"/>
 <use transform="matrix(1.6429 0 0 1.6429 -192.86 -315.27)" xlink:href="#c"/>
 <use transform="translate(-73.476,-171.96)" xlink:href="#h"/>
 <use transform="translate(35.64,-153.27)" xlink:href="#f"/>
 <use transform="translate(-10.67,-172.1)" xlink:href="#g"/>
 <use transform="translate(-54.73,-153.46)" xlink:href="#e"/>
 <circle cx="300" cy="490.39" r="6.4546"/>
 <g>
  <path d="m300 490.39 90.579-104.26h-181.16z" fill="url(#w)"/>
  <path d="m300 490.39 90.579-104.26h-181.16z" fill="url(#v)"/>
  <path d="m300 490.39 90.579-104.26h-181.16z" fill="url(#u)"/>
  <path d="m300 490.39 90.579-104.26h-181.16z" fill="url(#t)"/>
 </g>
 <path id="c" d="m123.87 287.65 35.843-90.365h280.56l35.843 90.365z" stroke="#000" stroke-linecap="round" stroke-linejoin="round" stroke-width="1.3"/>
 <g>
  <g id="h">
   <path d="m173.12 208.69 14.842-3.5372 13.622 3.4628 2.5818 6.4546-3.7114 4.4376-17.185 2.7839-11.062-4.1574z" fill="#fbfbdf" stroke-width="1.2909"/>
   <path d="m173.12 208.69 14.842-3.5372 13.622 3.4628 2.5818 6.4546-3.7114 4.4376-17.185 2.7839-11.062-4.1574zm20.234 5.0893c-0.88389-1.065-3.3498-1.9364-5.4798-1.9364-3.2961 0-3.6335 0.28834-2.2657 1.9364 0.88389 1.065 3.3498 1.9364 5.4798 1.9364 3.2961 0 3.6335-0.28835 2.2657-1.9364zm6.4546-1.9364c0-1.42-0.52653-2.5819-1.1701-2.5819s-0.86625 1.1618-0.49491 2.5819c0.37135 1.42 0.89788 2.5819 1.1701 2.5819 0.27219 0 0.4949-1.1618 0.4949-2.5819zm-13.259-3.3618c-0.42898-0.42896-1.5424-0.47481-2.4743-0.1019-1.0298 0.41209-0.72393 0.71799 0.77994 0.77992 1.3608 0.056 2.1233-0.24905 1.6943-0.67802z" fill="#f7f8a8" stroke-width="1.2909"/>
   <path d="m173.12 208.69 14.842-3.5372 13.622 3.4628 2.5818 6.4546-3.7114 4.4376-17.185 2.7839-11.062-4.1574zm12.141 10.004c-1.256-0.3273-2.9988-0.30578-3.8728 0.0479-0.874 0.35362 0.15366 0.62141 2.2837 0.5951 2.13-0.0263 2.8451-0.31563 1.5891-0.64293zm-8.2437-2.3884c-0.42045-1.0956-1.0413-1.7152-1.3797-1.3768-0.33839 0.33839-0.23234 1.2348 0.23566 1.9921 1.2729 2.0596 2.0169 1.6595 1.144-0.61526zm17.166-2.5262c-2.0958-2.0958-9.8664-2.6889-9.8664-0.75303 0 1.6268 2.44 2.4669 7.5151 2.5875 3.8113 0.0906 4.0726-0.11322 2.3513-1.8345zm6.1074-1.3322c1.0256-2.6726-4.1637-4.5362-11.862-4.2599-5.9621 0.21393-5.9746 0.22339-0.88415 0.66683 8.7738 0.76428 11.27 1.6425 10.485 3.6885-0.39728 1.0353-0.22179 1.8823 0.38998 1.8823 0.61175 0 1.4538-0.88998 1.8712-1.9777z" fill="#ddde5a" stroke-width="1.2909"/>
   <path d="m173.12 208.69 14.842-3.5372 13.622 3.4628 2.5818 6.4546-3.7114 4.4376-17.185 2.7839-11.062-4.1574zm16.361 10.034c-10.83-1.0824-13.147-1.8175-12.342-3.9148 0.66891-1.7432 0.47967-1.7886-1.2996-0.31192-3.503 2.9072 1.1939 5.1264 10.338 4.8849 4.4574-0.11773 5.8782-0.40083 3.3033-0.6582zm9.758-4.9444c2.4805-1.9168 2.4805-1.956 0-3.8728-2.705-2.0903-15.632-2.6747-18.528-0.83757-0.93183 0.59115 1.411 0.80381 5.3013 0.48119 7.5521-0.62628 14.371 1.6324 11.077 3.6687-1.0141 0.62672-2.3086 0.56713-3.0144-0.13877-0.68045-0.68044-4.4613-1.211-8.4018-1.179-7.1098 0.0578-7.135 0.0718-3.2919 1.8315 5.2292 2.3944 13.789 2.4181 16.858 0.0466z" fill="#b1b243" stroke-width="1.2909"/>
   <path d="m173.12 208.69 14.842-3.5372 13.622 3.4628 2.5818 6.4546-3.7114 4.4376-17.185 2.7839-11.062-4.1574zm14.208 9.7334c-4.3792-0.42424-8.3586-1.1684-8.843-1.6536-1.657-1.6597 0.71927-3.4781 3.6003-2.7552 13.509 3.39 23.6 0.65964 17.198-4.6534-2.4495-2.0329-16.267-2.2868-19.485-0.35805-2.1185 1.27-1.0759 1.4206 5.8092 0.83883 4.7173-0.39858 9.2224-0.14651 10.29 0.57575 2.8666 1.9393 1.006 2.8136-3.337 1.568-2.1169-0.60711-6.6089-0.68496-9.9823-0.17301-13.459 2.0426-10.171 7.9139 4.2442 7.5788l8.467-0.19684z" fill="#969737" stroke-width="1.2909"/>
   <path d="m173.12 208.69 14.842-3.5372 13.622 3.4628 2.5818 6.4546-3.7114 4.4376-17.185 2.7839-11.062-4.1574zm22.709 10.078c0.29583-0.25882-1.4469-0.47698-3.8728-0.4848-6.9164-0.0222-14.093-1.4904-14.093-2.8831 0-0.75481 1.6991-0.90477 4.1955-0.3703 9.73 2.0832 19.041 0.58018 19.041-3.0735 0-2.8987-1.9043-3.7324-10.955-4.7961-5.2347-0.61524-7.5733-0.30865-9.8594 1.2926l-2.9969 2.0991 3.1918 0.0728c2.7245 0.0622 2.5326 0.29846-1.3107 1.6137-6.1109 2.0912-6.6288 5.5725-1.0673 7.1748 3.7627 1.0841 16.27 0.62886 17.726-0.6452zm-4.4107-7.804-5.1637-1.7288 5.0009 0.60311c4.7713 0.57541 7.0278 1.5102 5.8644 2.4294-0.29584 0.23375-2.8616-0.35296-5.7016-1.3038z" fill="#5a5a20" stroke-width="1.2909"/>
   <path d="m173.12 208.69 14.842-3.5372 13.622 3.4628 2.5818 6.4546-3.7114 4.4376-17.185 2.7839-11.062-4.1574zm26.623 8.9374c3.2912-1.7736 3.2903-1.7746-1.2246-1.3674-2.485 0.22413-3.2537 0.15887-1.7081-0.14503 4.2511-0.83583 5.8652-3.3897 3.8684-6.1206-2.5417-3.476-17.383-4.3962-22.01-1.3646-1.9071 1.2496-3.1639 2.5755-2.7929 2.9465s0.0337 1.4467-0.74961 2.3906c-1.9903 2.3981-0.56018 5.3028 2.9813 6.0553 4.7634 1.0121 18.041-0.4575 21.636-2.3948zm-16.716-0.2604c-1.775-0.31843-3.6609-0.99242-4.1909-1.4978-1.6108-1.536 4.6563-0.8616 7.4182 0.79821 2.6641 1.6011 2.2718 1.6861-3.2273 0.69956z" fill="#2f2f10" stroke-width="1.2909"/>
   <path d="m172.33 208.4-0.10225 4.6552-0.69645 5.5738 11.383 4.1481 18.173-2.7627 3.5566-5.1027-2.6723-6.7399-14.004-3.087zm15.897-1.6996c9.4438-0.0322 14.819 2.4955 13.777 6.4798-0.41887 1.6017 0.44358 1.9316 1.18 1.649 0.73641-0.2826-2.3256 3.3165-4.2182 4.1073-9.8456 4.1138-27.79 1.3214-25.745-4.0064 0.30692-0.79978 0.19607-1.4756-0.21683-1.7095 0.81117-1.1928 1.9594-2.7061 3.5702-3.9661 2.44-1.9086 5.2828-2.5324 11.654-2.5541zm-5.3074 9.1676c-0.44846-0.0185-0.95863 0.0631-1.4246 0.24962-1.0298 0.41209-0.72477 0.71721 0.7791 0.7791 1.3608 0.056 2.1233-0.24928 1.6943-0.67825-0.21448-0.21445-0.60042-0.332-1.0489-0.35047z" stroke-width="1.2909"/>
  </g>
  <g id="f">
   <path d="m344.84 249.58 3.0386-7.8527 32.381-5.9441 32.347 3.6977 3.6432 9.8452-0.48492 13.227-34.724-1.1981-32.652-0.43907z" fill="#e7fbe6" stroke-width="1.2909"/>
   <path d="m344.84 249.58 3.0386-7.8527 32.381-5.9441 32.347 3.6977 3.6432 9.8452-0.48492 13.227-34.724-1.1981-32.652-0.43907zm47.559 6.9472c0.97404-0.61702 1.5401-1.8145 1.2579-2.6611-0.33149-0.99446-1.3718-0.59038-2.9393 1.1416-2.4651 2.7239-1.5399 3.5601 1.6814 1.5195zm-11.13-2.2754c-0.88751-0.35812-2.3398-0.35812-3.2273 0-0.88751 0.35811-0.16136 0.65111 1.6137 0.65111 1.775 0 2.5012-0.293 1.6137-0.65111zm7.7587-3.3406c0.30305-0.88751-0.66515-2.6858-2.1516-3.9961-2.1668-1.9102-4.1101-2.2535-9.8026-1.7319-3.9051 0.35785-8.4072 1.062-10.005 1.5648-2.1914 0.68974-2.9046 0.40179-2.9046-1.1727 0-1.1478 0.67774-2.087 1.5061-2.087 0.82833 0 1.1369-0.36915 0.68574-0.82033-0.45118-0.45118-2.3528 0.18381-4.2259 1.4111-4.1576 2.7241-2.9454 4.3087 4.5914 6.0021 3.8225 0.85887 6.7321 0.7616 9.7386-0.32557 3.5956-1.3002 4.7722-1.2128 7.2914 0.54171 3.6957 2.5739 4.5721 2.6759 5.2762 0.61386zm3.8597-5.6959c-0.88751-0.35811-2.3398-0.35811-3.2273 0-0.88751 0.35812-0.16136 0.65114 1.6137 0.65114 1.775 0 2.5012-0.29302 1.6137-0.65114z" fill="#9df0a1" stroke-width="1.2909"/>
   <path d="m344.84 249.58 3.0386-7.8527 32.381-5.9441 32.347 3.6977 3.6432 9.8452-0.48492 13.227-34.724-1.1981-32.652-0.43907zm48.968 6.2288c1.4935-1.7995 0.8732-4.6193-0.99745-4.5342-0.4906 0.0223-1.9357 1.4746-3.2114 3.2273-2.2474 3.0879-2.2423 3.1868 0.16467 3.1868 1.3662 0 3.1861-0.84593 4.0442-1.8798zm-9.662-1.9706c0.89984-0.7468 2.5061-1.024 3.5695-0.6159 2.4435 0.93765 4.2743-3.3293 2.025-4.7195-2.7797-1.718-0.23605-2.6391 4.7202-1.7093 2.6083 0.48933 6.3823 2.2695 8.3866 3.956 4.4087 3.7096 5.7499 3.9095 3.9746 0.59232-2.7998-5.2316-21.002-8.822-33.126-6.5343-4.5967 0.86733-8.697 1.2376-9.1119 0.82271-1.2326-1.2326 4.8507-3.4105 13.134-4.7022l7.7456-1.2078-8.8827 0.6464c-10.076 0.73329-17.581 3.3726-17.581 6.1831 0 3.1225 8.3406 5.0596 17.543 4.0741 10.594-1.1345 10.966 1.0358 0.53046 3.089-4.2601 0.83811-7.7456 1.866-7.7456 2.2842 0 1.2264 13.026-0.67132 14.819-2.1588zm-19.041 0.48863c-0.42897-0.42896-1.5424-0.47482-2.4743-0.10185-1.0298 0.4121-0.72393 0.718 0.77994 0.77994 1.3608 0.056 2.1233-0.24906 1.6944-0.67802z" fill="#5ddf64" stroke-width="1.2909"/>
   <path d="m344.84 249.58 3.0386-7.8527 32.381-5.9441 32.347 3.6977 3.6432 9.8452-0.48492 13.227-34.724-1.1981-32.652-0.43907zm45.737 8.128c4.8401-1.8402 5.5794-5.0215 1.8661-8.0305l-3.1061-2.517 5.802 0.66527c4.3223 0.49561 6.5299 1.5783 8.6566 4.2454 2.9088 3.6479 5.2192 3.5248 3.7892-0.20192-2.1798-5.6805-23.647-10.091-35.09-7.2094-3.3347 0.83967-6.3326 1.2571-6.662 0.92769-1.3407-1.3407 5.2885-3.5251 14.121-4.6529l9.3838-1.1982-11.229 0.51754c-19.962 0.92006-25.629 7.2148-10.061 11.176l8.381 2.1326-7.4643 0.12651c-4.1054 0.0696-9.5681-0.75253-12.139-1.8269-4.923-2.057-7.4713-1.7367-3.421 0.42988 7.1364 3.8174 23.295 4.8329 32.586 2.0479 3.9139-1.1732 2.5332 1.6793-1.6249 3.357l-2.7725 1.1186 2.8206 0.0818c1.5513 0.0451 4.3256-0.49037 6.165-1.1897zm-12.213-6.7487c0-0.55892 1.1618-1.0162 2.5818-1.0162s2.5819 0.54481 2.5819 1.2107-1.1618 1.1232-2.5819 1.0162c-1.42-0.10701-2.5818-0.65179-2.5818-1.2107z" fill="#3acc44" stroke-width="1.2909"/>
   <path d="m344.84 249.58 3.0386-7.8527 32.381-5.9441 32.347 3.6977 3.6432 9.8452-0.48492 13.227-34.724-1.1981-32.652-0.43907zm47.079 7.7668c4.1588-2.1513 4.5786-3.9457 1.652-7.061-2.1425-2.2806-2.314-2.9246-0.77869-2.9246 4.2622 0 9.8142 2.8638 11.439 5.9005 1.7051 3.1859 3.884 3.6012 4.7807 0.91101 0.88391-2.6517-5.0581-6.5867-13.326-8.8246-6.0822-1.6464-11.042-2.0489-18.915-1.5352-12.974 0.84651-9.331-1.0555 5.2117-2.7214l9.9357-1.1382-9.7704-0.16884c-9.6878-0.16742-22.26 2.5131-23.849 5.085-1.3545 2.1916 1.9941 4.9907 8.2897 6.9294l5.9662 1.8372-5.5379 0.0898c-3.2142 0.0522-7.7355-1.0312-10.775-2.582-2.8806-1.4696-5.5781-2.3312-5.9944-1.9149-4.154 4.154 25.047 9.2534 33.842 5.9097 2.0515-0.77998 3.3114-0.79484 3.3114-0.0391 0 0.67096-2.7594 2.1064-6.1319 3.1899l-6.1319 1.97 7.1001-0.78866c3.9051-0.43377 8.2619-1.3897 9.682-2.1242z" fill="#2c9e33" stroke-width="1.2909"/>
   <path d="m344.84 249.58 3.0386-7.8527 32.381-5.9441 32.347 3.6977 3.6432 9.8452-0.48492 13.227-34.724-1.1981-32.652-0.43907zm42.364 9.4936c7.3706-1.4241 10.426-4.3424 8.2285-7.8604-1.3708-2.1951-1.27-2.561 0.70619-2.561 3.8354 0 8.3382 3.8982 7.6302 6.6056-0.70315 2.6889 2.2222 3.2957 5.5772 1.1569 2.9476-1.879 0.26507-5.2953-7.0311-8.9543-4.4938-2.2536-9.5256-3.3888-17.999-4.0606l-11.761-0.93239 15.084 0.18775c19.207 0.2391 16.687-2.0994-3.0363-2.8169-23.272-0.84664-34.843 5.3317-21.407 11.43 3.0176 1.3697 4.5565 2.5032 3.42 2.5187-3.7591 0.0516-10.809-2.8058-12.965-5.2549-1.8044-2.0495-2.3493-2.1374-3.6364-0.58648-3.4787 4.1915 11.883 8.9912 26.367 8.2385 9.1838-0.47724 9.4997 0.93556 0.59949 2.6816l-5.7166 1.1215 5.1637 0.0852c2.84 0.0469 7.6895-0.4028 10.777-0.99927z" fill="#1a5e1e" stroke-width="1.2909"/>
   <path d="m344.84 249.58 3.0386-7.8527 32.381-5.9441 32.347 3.6977 3.6432 9.8452-0.48492 13.227-34.724-1.1981-32.652-0.43907zm44.13 9.3422c5.7099-1.584 8.9249-4.4584 7.9189-7.0801-0.95385-2.4857 2.6017-2.5045 4.6598-0.0245 0.85562 1.031 1.178 3.0642 0.71655 4.5182-0.75041 2.3643-0.29206 2.6438 4.3354 2.6438 2.846 0 5.536-0.58488 5.9778-1.2997 1.6084-2.6025-4.5892-8.8717-11.333-11.464-6.9696-2.6791-4.5518-3.8535 2.7167-1.3197 6.7012 2.336 7.7209 0.49871 1.511-2.7226-5.1094-2.6504-7.6753-3.0223-21.3-3.0874-21.088-0.10082-29.925 3.0997-26.456 9.5813 1.3617 2.5443 1.267 2.649-1.2014 1.328-1.4738-0.78873-2.6796-2.5755-2.6796-3.9705 0-3.3864-2.8224-3.2238-5.0162 0.28885-1.5693 2.5129-1.4593 3.0724 0.99524 5.0599 3.516 2.8471 13.515 4.9986 23.771 5.1148 11.252 0.12755 5.7213 2.225-6.8409 2.5943-9.0533 0.26614-9.3048 0.34791-3.8728 1.2593 6.8218 1.1445 19.301 0.4656 26.098-1.4198zm-3.1838-16.345c1.5975-0.30771 4.2116-0.30771 5.8092 0 1.5975 0.30769 0.29046 0.55945-2.9046 0.55945-3.195 0-4.5021-0.25176-2.9046-0.55945z" fill="#0c2f0f" stroke-width="1.2909"/>
   <path d="m343.81 249.19 3.3446-8.1889 33.03-6.0748 33.268 3.4217 4.3433 10.75-1.1513 14.29-35.833-1.3803-33.239-0.23043zm48.107 9.4262c3.6217-1.2781 5.2898-2.6751 5.586-4.6782 0.63963-4.3261 3.4962-2.3576 3.138 2.1625-0.2913 3.6759 0.0425 4.0033 4.9216 4.8276 4.0586 0.68569 5.7959 0.37592 7.7353-1.3793 3.4524-3.1244 3.1468-4.9635-1.4706-8.8488l-3.9718-3.3421h3.2055c2.5481 0 3.0698-0.5189 2.5439-2.5301-0.4546-1.7384-2.7395-3.112-7.302-4.3899-10.601-2.969-17.405-3.4747-30.923-2.2982-9.8048 0.85337-13.521 1.7358-16.459 3.9079-3.0443 2.2507-3.7948 2.415-3.7948 0.83061 0-2.7874-1.8782-2.4565-5.9534 1.0488-6.4947 5.5865-0.83749 10.042 15.729 12.388 13.256 1.8772 11.684 3.0739-2.6754 2.0372-13.406-0.96781-15.809-0.0305-4.9672 1.9372 8.4404 1.5318 28.291 0.57314 34.659-1.6738z" stroke-width="1.2909"/>
  </g>
  <g id="g">
   <path d="m297.52 218.02 0.49776-6.7712 22.9-3.5159 19.026 2.8609 6.147 8.112-4.0362 8.4314-20.491 2.1662-23.237-2.61z" fill="#e0f5fa" stroke-width="1.2909"/>
   <path d="m297.52 218.02 0.49776-6.7712 22.9-3.5159 19.026 2.8609 6.147 8.112-4.0362 8.4314-20.491 2.1662-23.237-2.61zm17.563 4.987c-0.89812-1.0822-1.969-1.6315-2.3798-1.2207-0.41077 0.41076 0.10767 1.2873 1.1522 1.9478 2.7328 1.7283 3.0899 1.5168 1.2276-0.72709zm16.485-4.297c3.2559-0.21301 3.9461-3.3869 0.98369-4.5237-1.1101-0.42598-1.7912-0.0756-1.6137 0.83008 0.16898 0.86195-0.56414 1.3299-1.6292 1.0398-1.065-0.29005-5.7124-0.65732-10.327-0.81613-4.6151-0.15883-7.3744-0.0241-6.1319 0.2993 1.2425 0.32344 2.2592 1.2716 2.2594 2.1071 2.4e-4 1.3794 5.8516 1.7575 16.459 1.0636z" fill="#a0ddef" stroke-width="1.2909"/>
   <path d="m297.52 218.02 0.49776-6.7712 22.9-3.5159 19.026 2.8609 6.147 8.112-4.0362 8.4314-20.491 2.1662-23.237-2.61zm18.184 4.3172c-1.9179-2.1192-1.9828-2.4824-0.33064-1.8484 1.1309 0.43396 2.4306 0.18308 2.8884-0.55752 0.4943-0.7998 3.0896-1.0371 6.3918-0.58451 6.8795 0.94293 12.402-1.4013 9.6471-4.0952-0.97034-0.94897-3.507-2.0675-5.637-2.4855-3.3584-0.65914-3.487-0.59022-0.9682 0.51893 1.5975 0.70345 2.9046 1.4921 2.9046 1.7526s-4.5021 0.24314-10.005-0.0385c-8.5131-0.43574-10.652-0.10482-14.346 2.2194-2.3876 1.5024-3.9536 3.1191-3.4799 3.5928 0.4737 0.47368 1.2772 0.18826 1.7855-0.63427 1.092-1.7668 8.0414-4.5997 8.9803-3.6607 0.35772 0.3577-0.13662 1.5987-1.0985 2.7577-1.4975 1.8044-1.3957 2.3656 0.70824 3.904 3.679 2.6902 5.2786 2.1646 2.5588-0.8407zm11.669 0.0555c-2.13-0.542-5.0346-1.0134-6.4546-1.0475l-2.5819-0.062 2.5819 1.1095c1.42 0.61021 4.3246 1.0816 6.4546 1.0475l3.8728-0.062z" fill="#50b5d8" stroke-width="1.2909"/>
   <path d="m297.52 218.02 0.49776-6.7712 22.9-3.5159 19.026 2.8609 6.147 8.112-4.0362 8.4314-20.491 2.1662-23.237-2.61zm26.276 7.4656c-0.42898-0.42896-1.5424-0.47481-2.4743-0.10185-1.0298 0.4121-0.72392 0.718 0.77994 0.77994 1.3608 0.056 2.1233-0.24906 1.6944-0.67802zm-5.2578-1.4792c-0.32785-0.53251 3.5591-0.98523 8.6376-1.006 5.1054-0.0209 10.582-0.78911 12.249-1.7182 4.5612-2.542 2.5529-3.069-2.9436-0.77245-2.6637 1.113-5.8027 1.7826-6.9756 1.4882-1.481-0.37188-0.85082-1.0234 2.0631-2.1329 8.4208-3.2063 3.1453-7.4603-10.463-8.4366l-7.9331-0.56914 7.0163 1.2723c9.8008 1.7772 9.687 2.5157-0.38797 2.5157-9.2688 0-17.601 2.617-17.601 5.5282 0 3.2295 1.6788 3.5478 3.1444 0.5961 1.7686-3.5619 8.0245-5.0154 6.697-1.556-1.0672 2.781 1.308 5.7592 4.5931 5.7592 1.375 0 2.2317-0.43568 1.9039-0.96819z" fill="#2f8dae" stroke-width="1.2909"/>
   <path d="m297.52 218.02 0.49776-6.7712 22.9-3.5159 19.026 2.8609 6.147 8.112-4.0362 8.4314-20.491 2.1662-23.237-2.61zm24.366 6.8013c-5.5062-1.5898-5.3653-2.456 0.25122-1.5446 8.5468 1.387 22.711-2.5573 19.764-5.5039-0.52705-0.52705-2.0242 6e-3 -3.327 1.1854-1.3028 1.179-3.7752 2.1068-5.4944 2.0618l-3.1257-0.0818 3.0004-1.203c4.5157-1.8105 3.02-5.3922-3.0107-7.2095-5.9632-1.7969-16.894-2.0577-20.645-0.49249-1.6347 0.68215 0.25961 0.89464 5.1637 0.57923l7.7456-0.49816-7.3545 1.7186c-11.603 2.7114-17.829 8.2858-10.781 9.6521 1.314 0.25471 1.9567-0.11683 1.4948-0.86412-0.96036-1.5539 2.553-5.3919 4.9359-5.3919 1.0699 0 1.4496 1.1279 1.062 3.155-0.51148 2.6756 0.0551 3.3444 3.7291 4.4018 2.3827 0.68575 5.7845 1.2468 7.5595 1.2468 2.7546 0 2.6128-0.17743-0.9682-1.2114z" fill="#26748f" stroke-width="1.2909"/>
   <path d="m297.52 218.02 0.49776-6.7712 22.9-3.5159 19.026 2.8609 6.147 8.112-4.0362 8.4314-20.491 2.1662-23.237-2.61zm25.98 6.9546c-1.9831-0.85216-1.2694-1.1305 3.0775-1.2002 7.149-0.11464 15.641-2.6111 15.641-4.5982 0-2.8263-1.4965-3.0326-3.9804-0.54871-1.3609 1.3609-3.4567 2.4743-4.6574 2.4743-1.9471 0-1.9244-0.18921 0.20975-1.7497 5.7592-4.2112-2.7449-8.6703-16.1-8.4418-3.9051 0.0667-8.5524 0.63568-10.327 1.2642-2.3057 0.81635-1.0154 0.99047 4.5182 0.60972l7.7456-0.53298-7.1001 1.9242c-7.919 2.1461-12.388 5.6416-11.193 8.7554 1.1818 3.0798 5.9545 2.683 5.1411-0.42742-0.43109-1.6485 0.29455-2.9748 2.1794-3.9836 2.5398-1.3593 2.7416-1.2474 1.9947 1.106-1.0538 3.3201 4.3782 6.5539 10.914 6.4974 3.6785-0.0318 4.0384-0.24525 1.9364-1.1485z" fill="#1b5367" stroke-width="1.2909"/>
   <path d="m297.52 218.02 0.49776-6.7712 22.9-3.5159 19.026 2.8609 6.147 8.112-4.0362 8.4314-20.491 2.1662-23.237-2.61zm33.08 8.9279c0-0.3347-1.888-1.1537-4.1955-1.82-4.0958-1.1826-4.0488-1.2142 1.9779-1.3278 6.338-0.11954 15.127-2.9991 15.127-4.9561 0-1.4253-2.7784-4.1968-4.2072-4.1968-0.60991 0-0.79058 0.5151-0.40149 1.1447s-0.20919 1.9054-1.3295 2.8352c-1.6978 1.4091-1.9924 1.3797-1.7692-0.17647 0.14725-1.0268 0.1989-2.5658 0.11477-3.42-0.41439-4.2074-25.47-5.9167-32.61-2.2246-4.7062 2.4337-4.1912 3.7501 0.73454 1.8773 6.0378-2.2956 8.0908-1.384 2.5501 1.1323-7.565 3.4356-9.1892 9.159-2.5992 9.159 2.1697 0 2.9043-0.7204 2.8284-2.7739-0.14135-3.8254 2.2342-4.3156 3.7848-0.78096 0.85789 1.9555 3.1811 3.4044 7.0856 4.4192 6.0468 1.5715 12.909 2.1611 12.909 1.109z" fill="#123846" stroke-width="1.2909"/>
   <path d="m296.31 216.25 1.775-6.9791 22.873-2.1068 19.757 2.4303 6.7843 10.168-4.2877 8.2636-22.731 2.7966-22.966-2.6318zm42.674 10.01c3.1193-0.79372 2.2402-1.0465-4.5182-1.2992l-8.391-0.31379 6.8528-0.99806c3.769-0.54893 7.9854-2.023 9.3697-3.2758 2.3547-2.131 2.3785-2.4306 0.36997-4.6501-2.6739-2.9546-5.8406-3.1595-4.746-0.30703 0.45846 1.1947-0.57072 0.70204-2.4416-1.1688-6.8371-6.8371-37.16-5.8804-37.16 1.1723 0 1.4349 0.76006 1.7367 2.7683 1.0993l2.7683-0.87863-2.8079 3.014c-4.001 4.2945-3.0285 6.8802 2.7684 7.361 4.5549 0.37783 6.4145-1.2055 3.5183-2.9955-1.4746-0.91133-0.47995-3.2143 1.3882-3.2143 0.6681 0 1.2147 0.8009 1.2147 1.7798 0 4.4291 18.384 7.3879 29.046 4.6749z" stroke-width="1.2909"/>
  </g>
  <g id="e">
   <path d="m186.98 262.13 3.2273-9.3009 32.515-3.6891 36.227 6.2709 1.2102 5.5088-7.0194 11.515-43.488 5.2668-19.767-2.8463z" fill="#fbe800" stroke-width="1.2909"/>
   <path d="m186.98 262.13 3.2273-9.3009 32.515-3.6891 36.227 6.2709 1.2102 5.5088-7.0194 11.515-43.488 5.2668-19.767-2.8463zm34.532 6.9164c-2.4842-0.71627-1.741-0.97696 3.2273-1.1321 14.058-0.43897 20.759-6.0018 11.759-9.7622-2.5169-1.0516-6.1923-1.8711-8.1676-1.8211-3.2846 0.0831-3.1529 0.25152 1.541 1.9698 6.6162 2.4219 8.3516 4.1244 5.8296 5.7188-2.4608 1.5558-5.5279 1.6171-4.5852 0.0918 1.5879-2.5693-7.2359-4.0369-15.558-2.5877-14.781 2.574-14.152 8.2242 0.93187 8.3722 5.3773 0.0528 7.1256-0.243 5.0219-0.84959zm21.596-0.67693c-0.42897-0.42896-1.5424-0.47481-2.4743-0.10185-1.0298 0.4121-0.72393 0.718 0.77994 0.77994 1.3608 0.056 2.1233-0.24906 1.6943-0.67802zm5.5133-1.8019c1.065-0.68827 1.3555-1.2514 0.64547-1.2514-0.71002 0-2.1623 0.56312-3.2273 1.2514-1.065 0.68827-1.3555 1.2514-0.64546 1.2514s2.1623-0.56311 3.2273-1.2514z" fill="#f69f00" stroke-width="1.2909"/>
   <path d="m186.98 262.13 3.2273-9.3009 32.515-3.6891 36.227 6.2709 1.2102 5.5088-7.0194 11.515-43.488 5.2668-19.767-2.8463zm54.525 6.8974c6.6154-1.308 12.281-4.2011 12.281-6.2715 0-0.64365-2.4901 0.22146-5.5336 1.9225-3.295 1.8416-8.648 3.3808-13.232 3.8046l-7.6984 0.71184 6.2105-1.7795c7.182-2.0579 9.0206-3.505 7.961-6.2662-1.173-3.0569-6.6788-4.9906-15.996-5.6181l-8.5033-0.57264 5.8165 1.7176c7.6258 2.2519 11.616 4.4503 11.591 6.3869-0.0139 1.1026-0.30135 1.1447-0.9682 0.14165-1.9355-2.9112-10.963-4.6951-20.805-4.1111-9.4531 0.56087-18.226 3.5322-18.226 6.1728 0 0.66783 1.888 0.12831 4.1955-1.199 2.3075-1.3273 6.2287-2.802 8.7138-3.2771l4.5182-0.86386-4.1955 2.6562c-5.2082 3.2973-5.2849 4.9426-0.32743 7.027 4.3475 1.828 23.672 1.499 34.198-0.58213z" fill="#e16000" stroke-width="1.2909"/>
   <path d="m186.98 262.13 3.2273-9.3009 32.515-3.6891 36.227 6.2709 1.2102 5.5088-7.0194 11.515-43.488 5.2668-19.767-2.8463zm55.816 6.8764c7.3815-1.4354 12.281-4.2226 12.281-6.9868 0-2.6028-0.78909-2.4208-5.6804 1.31-2.3195 1.7691-6.2019 3.5441-8.6276 3.9444l-4.4104 0.72775 3.55-2.0492c5.024-2.9 4.4115-5.5747-1.9364-8.4562-4.0786-1.8513-8.1365-2.454-15.814-2.3488-7.5462 0.10353-9.1106 0.3794-5.8092 1.0246 4.2601 0.83257 4.0756 0.93785-3.2273 1.8422-14.353 1.7774-22.781 6.298-18.927 10.152 1.0398 1.0398 2.1252 0.53552 4.013-1.8645 1.4233-1.8094 3.7968-3.606 5.2745-3.9924 2.196-0.57427 2.4111-0.37048 1.1776 1.1158-2.0019 2.4121-0.68095 5.5165 2.9466 6.9249 3.4229 1.3289 25.849 0.4725 35.19-1.3439zm-20.235-11.066c0.93188-0.37291 2.0453-0.32706 2.4743 0.10185 0.42896 0.42897-0.3335 0.73408-1.6943 0.67802-1.5039-0.062-1.8098-0.36783-0.77994-0.77992z" fill="#dc2d00" stroke-width="1.2909"/>
   <path d="m186.98 262.13 3.2273-9.3009 32.515-3.6891 36.227 6.2709 1.2102 5.5088-7.0194 11.515-43.488 5.2668-19.767-2.8463zm13.379 6.2258c-0.12083-3.829 0.41781-4.8802 3.0015-5.8579 3.1415-1.1887 3.143-1.1851 0.6626 1.5557-2.412 2.6653-2.4151 2.7992-0.10199 4.4905 4.6458 3.3971 25.337 6.1501 25.337 3.3711 0-0.60887 3.5898-1.4822 7.9774-1.9408 9.1955-0.96112 17.009-4.3337 17.613-7.6023 0.50678-2.743-3.0641-3.0674-4.5494-0.41328-1.3603 2.4307-8.099 5.8953-11.359 5.8401-2.1694-0.0368-2.0148-0.35139 0.9682-1.9697 8.9044-4.8307-1.1956-10.909-17.75-10.682-7.9063 0.10843-9.2682 0.36455-5.8092 1.0926 2.485 0.52307 3.6469 1.039 2.5819 1.1466-9.7816 0.98761-20.189 3.0863-23.311 4.701-5.8024 3.0006-4.7281 8.3439 2.0107 10 1.42 0.34904 2.6481 0.70202 2.7291 0.78438 0.0809 0.0824 0.0809-1.9502 0-4.5167z" fill="#982800" stroke-width="1.2909"/>
   <path d="m186.98 262.13 3.2273-9.3009 32.515-3.6891 36.227 6.2709 1.2102 5.5088-7.0194 11.515-43.488 5.2668-19.767-2.8463zm15.627 11.431c1.1237-0.43122 1.6362-1.5972 1.2008-2.732-0.65657-1.711-0.33879-1.7539 2.3406-0.31597 3.8099 2.0446 30.311 3.4702 29.135 1.5673-0.46923-0.75924 1.5964-1.6257 4.982-2.0898 6.9709-0.95547 16.103-5.3841 16.103-7.8093 0-0.96366-0.93424-2.5274-2.0761-3.4751-1.7639-1.4639-2.3462-1.3535-3.8728 0.73413-0.98819 1.3514-1.7967 2.8649-1.7967 3.3632 0 0.49835-0.86056 1.2363-1.9124 1.6399-1.3632 0.52308-1.8266-0.0529-1.6137-2.0056 0.54324-4.9823-6.8899-8.0008-20.97-8.5157-6.7625-0.24729-14.619 0.11477-17.459 0.80459l-5.1637 1.2542 15.491 0.53868-9.4871 1.732c-13.491 2.4631-19.481 6.9706-15.553 11.704 2.7546 3.3191 7.3472 4.8734 10.652 3.6051z" fill="#5d1200" stroke-width="1.2909"/>
   <path d="m186.98 262.13 3.2273-9.3009 32.515-3.6891 36.227 6.2709 1.2102 5.5088-7.0194 11.515-43.488 5.2668-19.767-2.8463zm21.326 10.938c0.19172-0.46529 4.8096-0.32683 10.262 0.3077 10.202 1.1872 21.575 0.30363 20.408-1.5854-0.36253-0.58658 1.4275-1.458 3.9778-1.9364 6.0445-1.134 13.125-4.5446 13.962-6.7253 1.5482-4.0346-3.5061-8.9444-7.5933-7.376-1.4165 0.54356-1.7998 1.6401-1.2161 3.4791 0.78903 2.486 0.56336 2.4423-3.0385-0.58847-5.9279-4.988-13.884-6.6665-28.341-5.9794-6.9529 0.33043-14.384 1.3776-16.514 2.3269l-3.8728 1.7262 10.327 1.5193-5.2923 0.92274c-5.6444 0.98413-12.135 5.2354-12.135 7.948 0 2.3393 4.2542 5.8807 8.5751 7.1382 3.7144 1.0811 9.8449 0.39323 10.492-1.1772z" fill="#2f0400" stroke-width="1.2909"/>
   <path d="m184.99 261.97 4.2398-10.143 33.233-3.5973 37.473 5.5954 1.7115 7.1181-7.589 12.881-44.261 5.7657-21.961-3.5977zm32.651 13.21c1.065-0.37675 8.036-0.93366 15.491-1.2376 8.3719-0.3413 15.282-1.3232 18.073-2.5679 3.9722-1.7718 4.1442-2.028 1.4228-2.1206-2.9203-0.0994-2.8473-0.2722 1.2909-3.0542 4.2929-2.886 6.3502-7.8675 4.1556-10.062-0.60221-0.6022-4.6286-1.3906-8.9477-1.752-4.319-0.36139-8.668-0.9603-9.6645-1.3309-4.9213-1.8303-19.389-2.7775-29.018-1.8998-14.563 1.3274-28.735 7.6663-17.14 7.6663h4.0637l-4.3864 2.956c-5.2048 3.5075-5.5851 6.8433-1.1572 10.149 4.9301 3.6809 19.44 5.5094 25.817 3.2536z" stroke-width="1.2909"/>
  </g>
 </g>
 <g fill="none" stroke="#000" stroke-width="1.2909px">
  <path d="m75.378 428.42v-83.91" marker-end="url(#j)"/>
  <path d="m75.378 428.42h71.001" marker-end="url(#x)"/>
  <path d="m75.378 428.42-23.042 58.092" marker-end="url(#i)"/>
 </g>
 <g font-family="DejaVu Sans" font-size="35px" font-stretch="semi-condensed" text-anchor="middle">
  <text x="299.35287" y="524.63245">Singularity</text>
  <text x="70.91066" y="337.59299">Time</text>
  <text x="163.00198" y="442.34662">X</text>
  <text x="46.354244" y="518.83063">Y</text>
 </g>
 <g transform="translate(0 -252.78)">
  <ellipse cx="293.84" cy="620.19" rx="30.418" ry="15.952" fill="url(#m)" opacity=".571"/>
  <ellipse cx="327.91" cy="609.9" rx="47.057" ry="18.624" fill="url(#n)" opacity=".571"/>
  <ellipse cx="326.68" cy="619.59" rx="54.864" ry="15.952" fill="url(#l)" opacity=".571"/>
  <ellipse cx="293.93" cy="613.73" rx="27.432" ry="10.409" fill="url(#p)" opacity=".571"/>
  <ellipse cx="272.63" cy="606.81" rx="25.334" ry="15.653" fill="url(#r)" opacity=".571"/>
  <ellipse cx="249.23" cy="607.98" rx="25.334" ry="15.653" fill="url(#s)" opacity=".571"/>
  <ellipse cx="264.71" cy="623.39" rx="61.319" ry="16.137" fill="url(#q)" opacity=".571"/>
  <ellipse transform="rotate(53.07)" cx="710.31" cy="75.311" rx="26.339" ry="10.817" fill="url(#k)" opacity=".571"/>
  <ellipse cx="313.98" cy="610.08" rx="47.057" ry="18.624" fill="url(#o)" opacity=".571"/>
 </g>
 <path d="m589.34 157.33-289.35 333.06-289.35-333.06" fill="none" stroke="#000" stroke-linejoin="round" stroke-width="2"/>
</svg>